<svg xmlns="http://www.w3.org/2000/svg" xmlns:xlink="http://www.w3.org/1999/xlink" width="100" height="100" viewBox="0 0 100 100">
  <defs>
    <clipPath id="clip-icon-panel">
      <rect width="100" height="100"/>
    </clipPath>
  </defs>
  <g id="icon-panel" clip-path="url(#clip-icon-panel)">
    <g id="Polygon_2" data-name="Polygon 2" transform="translate(103 -1) rotate(90)" fill="#ffeb33">
      <path d="M 95.46982574462891 99.50000762939453 L 6.530166149139404 99.50000762939453 C 5.302541255950928 99.50000762939453 4.186816215515137 98.87501525878906 3.545578718185425 97.82817840576172 C 2.904353857040405 96.78134155273438 2.854503870010376 95.50345611572266 3.412241220474243 94.40985107421875 L 47.88206481933594 7.214104175567627 C 48.49197769165039 6.018216609954834 49.65755462646484 5.30424165725708 51.00000381469727 5.30424165725708 C 52.34244155883789 5.30424165725708 53.50801467895508 6.018216609954834 54.11792755126953 7.214104175567627 L 98.5877685546875 94.40985107421875 C 99.14550018310547 95.50345611572266 99.09565734863281 96.78132629394531 98.45442962646484 97.82816314697266 C 97.81319427490234 98.87501525878906 96.69745635986328 99.50000762939453 95.46982574462891 99.50000762939453 Z" stroke="none"/>
      <path d="M 50.99999237060547 5.804237365722656 C 49.84932327270508 5.804237365722656 48.85026931762695 6.416206359863281 48.32749557495117 7.441261291503906 L 3.857673645019531 94.63702392578125 C 3.379600524902344 95.57439422607422 3.422325134277344 96.66971588134766 3.971946716308594 97.56700897216797 C 4.521575927734375 98.46430206298828 5.477920532226563 98.99999237060547 6.530166625976563 98.99999237060547 L 95.46983337402344 98.99999237060547 C 96.52207183837891 98.99999237060547 97.47841644287109 98.46430206298828 98.02804565429688 97.56700897216797 C 98.57766723632813 96.66971588134766 98.62040710449219 95.57439422607422 98.142333984375 94.63700866699219 L 53.6724967956543 7.441276550292969 C 53.14972305297852 6.416206359863281 52.15065765380859 5.804237365722656 50.99999237060547 5.804237365722656 M 50.99999618530273 4.804244995117188 C 52.41061019897461 4.804244995117188 53.82122421264648 5.531806945800781 54.56333541870117 6.9869384765625 L 99.03318023681641 94.18268585205078 C 100.3904571533203 96.84403228759766 98.45729827880859 99.99999237060547 95.46983337402344 99.99999237060547 L 6.530166625976563 99.99999237060547 C 3.542694091796875 99.99999237060547 1.609535217285156 96.84403228759766 2.966827392578125 94.18268585205078 L 47.4366569519043 6.9869384765625 C 48.17877197265625 5.531806945800781 49.58938217163086 4.804244995117188 50.99999618530273 4.804244995117188 Z" stroke="none" fill="#ffeb33"/>
    </g>
    <path id="Intersection_1" data-name="Intersection 1" d="M15.658,72.944V29.5a4,4,0,0,1,5.818-3.563l87.2,44.47a4,4,0,0,1,0,7.126L60.2,102.253Z" transform="translate(-12.658 -23.97)" fill="#f6ba24"/>
  </g>
</svg>
