<svg xmlns="http://www.w3.org/2000/svg" xmlns:xlink="http://www.w3.org/1999/xlink" width="333" height="575" viewBox="0 0 333 575">
  <defs>
    <clipPath id="clip-path">
      <rect width="155.057" height="607.185" fill="none"/>
    </clipPath>
    <clipPath id="clip-ribbon-bg">
      <rect width="333" height="575"/>
    </clipPath>
  </defs>
  <g id="ribbon-bg" clip-path="url(#clip-ribbon-bg)">
    <g id="Group_1" data-name="Group 1" transform="translate(-79.406 -55.437)">
      <path id="Path_2" data-name="Path 2" d="M339.8,92.542H315.222l-23.366,13.125L80.615,224.319V347.034H339.8Z" transform="translate(-0.209 2)" fill="#ffeb33" stroke="#ffeb33" stroke-width="1"/>
      <path id="Path_3" data-name="Path 3" d="M339.8,347.034H315.222l-23.366-13.125L80.615,215.257V92.542H339.8Z" transform="translate(-1.209 239)" fill="#ffeb33" stroke="#ffeb33" stroke-width="1"/>
      <g id="Rectangle_2" data-name="Rectangle 2" transform="translate(310 109)" fill="#f6ba24" stroke="#f6ba24" stroke-width="1">
        <rect width="104" height="461" stroke="none"/>
        <rect x="0.5" y="0.5" width="103" height="460" fill="none"/>
      </g>
      <g id="Repeat_Grid_1" data-name="Repeat Grid 1" transform="translate(310.5 23.253)" clip-path="url(#clip-path)">
        <g transform="translate(-310.68 -24.253)">
          <g id="Polygon_1" data-name="Polygon 1" transform="translate(362.416 24.253) rotate(31)" fill="#e7a922">
            <path d="M 119.6540222167969 99.95131683349609 L 0.8830855488777161 99.95131683349609 L 60.2685546875 0.9718707799911499 L 119.6540222167969 99.95131683349609 Z" stroke="none"/>
            <path d="M 60.2685546875 1.943710327148438 L 1.766159057617188 99.45130157470703 L 118.7709503173828 99.45130157470703 L 60.2685546875 1.943710327148438 M 60.2685546875 7.62939453125e-06 L 120.5371017456055 100.451301574707 L 7.62939453125e-06 100.451301574707 L 60.2685546875 7.62939453125e-06 Z" stroke="none" fill="#e7a922"/>
          </g>
        </g>
        <g transform="translate(-310.68 90.747)">
          <g id="Polygon_1-2" data-name="Polygon 1" transform="translate(362.416 24.253) rotate(31)" fill="#e7a922">
            <path d="M 119.6540222167969 99.95131683349609 L 0.8830855488777161 99.95131683349609 L 60.2685546875 0.9718707799911499 L 119.6540222167969 99.95131683349609 Z" stroke="none"/>
            <path d="M 60.2685546875 1.943710327148438 L 1.766159057617188 99.45130157470703 L 118.7709503173828 99.45130157470703 L 60.2685546875 1.943710327148438 M 60.2685546875 7.62939453125e-06 L 120.5371017456055 100.451301574707 L 7.62939453125e-06 100.451301574707 L 60.2685546875 7.62939453125e-06 Z" stroke="none" fill="#e7a922"/>
          </g>
        </g>
        <g transform="translate(-310.68 205.747)">
          <g id="Polygon_1-3" data-name="Polygon 1" transform="translate(362.416 24.253) rotate(31)" fill="#e7a922">
            <path d="M 119.6540222167969 99.95131683349609 L 0.8830855488777161 99.95131683349609 L 60.2685546875 0.9718707799911499 L 119.6540222167969 99.95131683349609 Z" stroke="none"/>
            <path d="M 60.2685546875 1.943710327148438 L 1.766159057617188 99.45130157470703 L 118.7709503173828 99.45130157470703 L 60.2685546875 1.943710327148438 M 60.2685546875 7.62939453125e-06 L 120.5371017456055 100.451301574707 L 7.62939453125e-06 100.451301574707 L 60.2685546875 7.62939453125e-06 Z" stroke="none" fill="#e7a922"/>
          </g>
        </g>
        <g transform="translate(-310.68 320.747)">
          <g id="Polygon_1-4" data-name="Polygon 1" transform="translate(362.416 24.253) rotate(31)" fill="#e7a922">
            <path d="M 119.6540222167969 99.95131683349609 L 0.8830855488777161 99.95131683349609 L 60.2685546875 0.9718707799911499 L 119.6540222167969 99.95131683349609 Z" stroke="none"/>
            <path d="M 60.2685546875 1.943710327148438 L 1.766159057617188 99.45130157470703 L 118.7709503173828 99.45130157470703 L 60.2685546875 1.943710327148438 M 60.2685546875 7.62939453125e-06 L 120.5371017456055 100.451301574707 L 7.62939453125e-06 100.451301574707 L 60.2685546875 7.62939453125e-06 Z" stroke="none" fill="#e7a922"/>
          </g>
        </g>
        <g transform="translate(-310.68 435.747)">
          <g id="Polygon_1-5" data-name="Polygon 1" transform="translate(362.416 24.253) rotate(31)" fill="#e7a922">
            <path d="M 119.6540222167969 99.95131683349609 L 0.8830855488777161 99.95131683349609 L 60.2685546875 0.9718707799911499 L 119.6540222167969 99.95131683349609 Z" stroke="none"/>
            <path d="M 60.2685546875 1.943710327148438 L 1.766159057617188 99.45130157470703 L 118.7709503173828 99.45130157470703 L 60.2685546875 1.943710327148438 M 60.2685546875 7.62939453125e-06 L 120.5371017456055 100.451301574707 L 7.62939453125e-06 100.451301574707 L 60.2685546875 7.62939453125e-06 Z" stroke="none" fill="#e7a922"/>
          </g>
        </g>
        <g transform="translate(-310.68 550.747)">
          <g id="Polygon_1-6" data-name="Polygon 1" transform="translate(362.416 24.253) rotate(31)" fill="#e7a922">
            <path d="M 119.6540222167969 99.95131683349609 L 0.8830855488777161 99.95131683349609 L 60.2685546875 0.9718707799911499 L 119.6540222167969 99.95131683349609 Z" stroke="none"/>
            <path d="M 60.2685546875 1.943710327148438 L 1.766159057617188 99.45130157470703 L 118.7709503173828 99.45130157470703 L 60.2685546875 1.943710327148438 M 60.2685546875 7.62939453125e-06 L 120.5371017456055 100.451301574707 L 7.62939453125e-06 100.451301574707 L 60.2685546875 7.62939453125e-06 Z" stroke="none" fill="#e7a922"/>
          </g>
        </g>
      </g>
    </g>
  </g>
</svg>
